<svg width="20" height="15" viewBox="0 0 20 15" fill="none" xmlns="http://www.w3.org/2000/svg">
<path fill-rule="evenodd" clip-rule="evenodd" d="M18.3871 0H1.6129C0.725806 0 0 0.723214 0 1.60714C0 2.49107 0.725806 3.21429 1.6129 3.21429H18.3871C19.2742 3.21429 20 2.49107 20 1.60714C20 0.723214 19.2742 0 18.3871 0ZM18.3871 5.89286H1.6129C0.725806 5.89286 0 6.61607 0 7.5C0 8.38393 0.725806 9.10714 1.6129 9.10714H18.3871C19.2742 9.10714 20 8.38393 20 7.5C20 6.61607 19.2742 5.89286 18.3871 5.89286ZM1.6129 11.7857H18.3871C19.2742 11.7857 20 12.5089 20 13.3929C20 14.2768 19.2742 15 18.3871 15H1.6129C0.725806 15 0 14.2768 0 13.3929C0 12.5089 0.725806 11.7857 1.6129 11.7857Z" fill="black"/>
</svg>
