<svg width="19" height="20" viewBox="0 0 19 20" fill="none" xmlns="http://www.w3.org/2000/svg">
<path d="M18.88 10C18.88 12.6522 17.8854 15.1957 16.1151 17.0711C14.3447 18.9464 11.9436 20 9.44 20C6.93636 20 4.53526 18.9464 2.76491 17.0711C0.994569 15.1957 0 12.6522 0 10C0 7.34784 0.994569 4.8043 2.76491 2.92893C4.53526 1.05357 6.93636 0 9.44 0C11.9436 0 14.3447 1.05357 16.1151 2.92893C17.8854 4.8043 18.88 7.34784 18.88 10ZM10.03 5.625C10.03 5.45924 9.96784 5.30027 9.85719 5.18306C9.74655 5.06585 9.59648 5 9.44 5C9.28352 5 9.13345 5.06585 9.02281 5.18306C8.91216 5.30027 8.85 5.45924 8.85 5.625V12.8663L6.31772 10.1825C6.20693 10.0651 6.05667 9.99921 5.9 9.99921C5.74332 9.99921 5.59307 10.0651 5.48228 10.1825C5.37149 10.2999 5.30925 10.459 5.30925 10.625C5.30925 10.791 5.37149 10.9501 5.48228 11.0675L9.02228 14.8175C9.07709 14.8757 9.14219 14.9219 9.21387 14.9534C9.28555 14.9849 9.36239 15.0011 9.44 15.0011C9.5176 15.0011 9.59445 14.9849 9.66613 14.9534C9.73781 14.9219 9.80291 14.8757 9.85772 14.8175L13.3977 11.0675C13.5085 10.9501 13.5707 10.791 13.5707 10.625C13.5707 10.459 13.5085 10.2999 13.3977 10.1825C13.2869 10.0651 13.1367 9.99921 12.98 9.99921C12.8233 9.99921 12.6731 10.0651 12.5623 10.1825L10.03 12.8663V5.625Z" fill="black"/>
</svg>
