<svg width="14" height="14" viewBox="0 0 14 14" fill="none" xmlns="http://www.w3.org/2000/svg">
<path d="M0.333984 11.6667C0.333984 12.8 1.20065 13.6667 2.33398 13.6667H11.6673C12.8007 13.6667 13.6673 12.8 13.6673 11.6667V6.33337H0.333984V11.6667ZM11.6673 1.66671H10.334V1.00004C10.334 0.600041 10.0673 0.333374 9.66732 0.333374C9.26732 0.333374 9.00065 0.600041 9.00065 1.00004V1.66671H5.00065V1.00004C5.00065 0.600041 4.73398 0.333374 4.33398 0.333374C3.93398 0.333374 3.66732 0.600041 3.66732 1.00004V1.66671H2.33398C1.20065 1.66671 0.333984 2.53337 0.333984 3.66671V5.00004H13.6673V3.66671C13.6673 2.53337 12.8007 1.66671 11.6673 1.66671Z" fill="#D0D0D0"/>
</svg>
