<svg width="312" height="308" viewBox="0 0 312 308" fill="none" xmlns="http://www.w3.org/2000/svg">
<path d="M169.255 169.248L36.8195 301.679C28.395 310.107 14.7362 310.107 6.3158 301.679C-2.10527 293.258 -2.10527 279.6 6.3158 271.179L123.5 153.998L6.31921 36.8207C-2.10186 28.3962 -2.10186 14.7394 6.31921 6.31836C14.7403 -2.10612 28.3984 -2.10612 36.8229 6.31836L169.258 138.751C173.469 142.964 175.572 148.479 175.572 153.997C175.572 159.518 173.465 165.037 169.255 169.248Z" fill="white"/>
<path d="M141.866 138.752L274.302 6.32119C282.726 -2.10737 296.385 -2.10737 304.805 6.3212C313.226 14.7423 313.226 28.4004 304.805 36.8208L187.621 154.002L304.802 271.179C313.223 279.604 313.223 293.261 304.802 301.682C296.381 310.106 282.723 310.106 274.298 301.682L141.863 169.248C137.652 165.036 135.55 159.521 135.55 154.003C135.55 148.482 137.657 142.963 141.866 138.752Z" fill="white"/>
</svg>
