<svg width="16" height="20" viewBox="0 0 16 20" fill="none" xmlns="http://www.w3.org/2000/svg">
<path fill-rule="evenodd" clip-rule="evenodd" d="M9.45455 1.76144C11.5574 2.4234 13.0909 4.48383 13.0909 6.92308V9.04385C13.0909 11.1338 13.8756 13.1377 15.2727 14.6154C15.6744 14.6154 16 14.9598 16 15.3846C16 15.8095 15.6744 16.1538 15.2727 16.1538H0.727273C0.325611 16.1538 0 15.8095 0 15.3846C0 14.9598 0.325611 14.6154 0.727273 14.6154C2.12436 13.1377 2.90909 11.1338 2.90909 9.04385V6.92308C2.90909 4.48383 4.44255 2.4234 6.54545 1.76144V1.53846C6.54545 0.688462 7.19636 0 8 0C8.80364 0 9.45455 0.688462 9.45455 1.53846V1.76144ZM8 20C9.20509 20 10.1818 18.9669 10.1818 17.6923H5.81818C5.81818 18.9669 6.79491 20 8 20Z" fill="black"/>
</svg>
