<svg width="14" height="14" viewBox="0 0 14 14" fill="none" xmlns="http://www.w3.org/2000/svg">
<path fill-rule="evenodd" clip-rule="evenodd" d="M0 0.564943C0 0.252934 0.252934 0 0.564943 0H13.4351C13.7471 0 14 0.252934 14 0.564943V3.32916C14 3.64117 13.7471 3.8941 13.4351 3.8941H0.564944C0.252934 3.8941 0 3.64117 0 3.32916V0.564943ZM0 5.61789C0 5.30588 0.252934 5.05295 0.564943 5.05295H13.4351C13.7471 5.05295 14 5.30588 14 5.61789V8.38211C14 8.69412 13.7471 8.94705 13.4351 8.94705H0.564944C0.252934 8.94705 0 8.69412 0 8.38211V5.61789ZM0.564943 10.1058C0.252934 10.1058 0 10.3587 0 10.6707V13.4351C0 13.7471 0.252934 14 0.564944 14H13.4351C13.7471 14 14 13.7471 14 13.4351V10.6707C14 10.3587 13.7471 10.1058 13.4351 10.1058H0.564943Z" fill="#C8C7CC"/>
</svg>
