<svg width="14" height="14" viewBox="0 0 14 14" fill="none" xmlns="http://www.w3.org/2000/svg">
<path fill-rule="evenodd" clip-rule="evenodd" d="M0.538464 0H5.9231C6.22049 0 6.46156 0.241068 6.46156 0.538462V5.92308C6.46156 6.22047 6.22049 6.46154 5.9231 6.46154H0.538464C0.241069 6.46154 0 6.22047 0 5.92308V0.538462C0 0.241068 0.241069 0 0.538464 0ZM8.0769 0H13.4615C13.7589 0 14 0.241068 14 0.538462V5.92308C14 6.22047 13.7589 6.46154 13.4615 6.46154H8.0769C7.77951 6.46154 7.53844 6.22047 7.53844 5.92308V0.538462C7.53844 0.241068 7.77951 0 8.0769 0ZM5.9231 7.53846H0.538464C0.241069 7.53846 0 7.77953 0 8.07692V13.4615C0 13.7589 0.241069 14 0.538464 14H5.9231C6.22049 14 6.46156 13.7589 6.46156 13.4615V8.07692C6.46156 7.77953 6.22049 7.53846 5.9231 7.53846ZM8.0769 7.53846H13.4615C13.7589 7.53846 14 7.77953 14 8.07692V13.4615C14 13.7589 13.7589 14 13.4615 14H8.0769C7.77951 14 7.53844 13.7589 7.53844 13.4615V8.07692C7.53844 7.77953 7.77951 7.53846 8.0769 7.53846Z" fill="#8A8A8F"/>
</svg>
